<svg xmlns="http://www.w3.org/2000/svg" version="1.1" xmlns:xlink="http://www.w3.org/1999/xlink" xmlns:svgjs="http://svgjs.dev/svgjs" width="1500" height="321" viewBox="0 0 1500 321"><g transform="matrix(1,0,0,1,-0.9090909090909918,-0.6966298071760377)"><svg viewBox="0 0 396 85" data-background-color="#ffffff" preserveAspectRatio="xMidYMid meet" height="321" width="1500" xmlns="http://www.w3.org/2000/svg" xmlns:xlink="http://www.w3.org/1999/xlink"><g id="tight-bounds" transform="matrix(1,0,0,1,0.2400000000000091,0.18446583679116202)"><svg viewBox="0 0 395.52 84.6310683264177" height="84.6310683264177" width="395.52"><g><svg viewBox="0 0 395.52 84.6310683264177" height="84.6310683264177" width="395.52"><g><svg viewBox="0 0 395.52 84.6310683264177" height="84.6310683264177" width="395.52"><g id="textblocktransform"><svg viewBox="0 0 395.52 84.6310683264177" height="84.6310683264177" width="395.52" id="textblock"><g><svg viewBox="0 0 395.52 84.6310683264177" height="84.6310683264177" width="395.52"><rect width="395.52" height="84.6310683264177" x="0" y="0" opacity="1" fill="#26876e" data-fill-palette-color="tertiary"></rect><g transform="matrix(1,0,0,1,23.607599999999998,23.607599999999998)"><svg width="348.3048" viewBox="3.3 -34.6 325.33 34.95" height="37.4158683264177" data-palette-color="#ffffff"><path d="M32.85-5.2L32.85-18.3 26.6-5.5Q25.8-3.9 24.9-3.23 24-2.55 22.75-2.55L22.75-2.55Q21.15-2.55 20.05-3.68 18.95-4.8 17.2-7.75L17.2-7.75 11.4-18.3 11.4-4.15Q11.4-2 10.43-1 9.45 0 7.5 0L7.5 0Q5.3 0 4.3-0.98 3.3-1.95 3.3-4.8L3.3-4.8 3.3-26.6Q3.3-30.45 5.05-32.4 6.8-34.35 10.95-34.35L10.95-34.35Q12.5-34.35 13.65-33.83 14.8-33.3 15.38-32.63 15.95-31.95 16.5-30.95L16.5-30.95 23.2-16.3 30.3-30.7Q32.15-34.3 36.95-34.3L36.95-34.3Q39.2-34.3 40.8-33.52 42.4-32.75 43.33-31.03 44.25-29.3 44.25-26.7L44.25-26.7 44.25-4.95Q44.2 0 38 0L38 0Q35.75 0 34.33-1.23 32.9-2.45 32.85-5.2L32.85-5.2ZM67.55-7L67.55-7Q69.25-7 70.47-8.5 71.7-10 72.22-12.2 72.75-14.4 72.75-16.9L72.75-16.9Q72.75-19.45 72.2-21.73 71.65-24 70.42-25.6 69.2-27.2 67.55-27.2L67.55-27.2Q65.95-27.2 64.75-25.6 63.55-24 62.95-21.7 62.35-19.4 62.35-16.9L62.35-16.9Q62.35-14.4 62.92-12.2 63.5-10 64.72-8.5 65.95-7 67.55-7ZM76.4-1.68Q72.45 0.3 67.52 0.3 62.6 0.3 58.67-1.68 54.75-3.65 52.4-7.6 50.05-11.55 50.05-16.9L50.05-16.9Q50.05-25 54.92-29.78 59.8-34.55 67.55-34.55 75.3-34.55 80.2-29.78 85.1-25 85.1-16.9L85.1-16.9Q85.1-11.55 82.72-7.6 80.35-3.65 76.4-1.68ZM106.3-8.15L106.3-8.15Q108.85-8.15 109.62-9.45 110.4-10.75 110.4-13.9L110.4-13.9Q110.4-15.4 110.42-20.83 110.45-26.25 110.45-29.1L110.45-29.1Q110.45-31.75 111.72-32.98 113-34.2 116.1-34.2L116.1-34.2Q118.85-34.2 120.2-32.83 121.55-31.45 122.09-27.83 122.65-24.2 122.65-16.8L122.65-16.8Q122.65-13.65 121.92-11.05 121.2-8.45 119.92-6.63 118.65-4.8 117.05-3.43 115.45-2.05 113.6-1.25 111.75-0.45 109.95-0.05 108.15 0.35 106.4 0.35L106.4 0.35Q104.25 0.35 102.07-0.18 99.9-0.7 97.67-2 95.45-3.3 93.75-5.18 92.05-7.05 90.97-10.08 89.9-13.1 89.9-16.8L89.9-16.8Q89.9-24.2 90.5-27.83 91.1-31.45 92.55-32.83 94-34.2 97-34.2L97-34.2Q99.8-34.2 100.95-32.98 102.1-31.75 102.1-29.1L102.1-29.1Q102.1-26.2 102.12-20.83 102.15-15.45 102.15-13.95L102.15-13.95Q102.15-12.65 102.22-11.88 102.3-11.1 102.52-10.3 102.75-9.5 103.2-9.08 103.65-8.65 104.4-8.4 105.15-8.15 106.3-8.15ZM140.29-28.7L140.29-7.5Q140.29-3.6 138.84-1.8 137.39 0 134.44 0L134.44 0Q131.54 0 130.17-1.55 128.79-3.1 128.79-7.1L128.79-7.1 128.79-28.25Q128.79-34.25 134.44-34.25L134.44-34.25Q137.34-34.25 138.82-33.15 140.29-32.05 140.29-28.7L140.29-28.7ZM158.44-20.3L167.04-20.3Q169.69-20.3 170.77-19.45 171.84-18.6 171.84-16.55L171.84-16.55Q171.84-14.85 170.56-14.13 169.29-13.4 166.59-13.4L166.59-13.4 158.49-13.4 158.49-8.1 169.34-8.05Q172.14-8.05 173.37-7.23 174.59-6.4 174.59-4.3L174.59-4.3Q174.59-1.9 173.17-0.95 171.74 0 168.84 0L168.84 0 152.64 0Q149.69 0 148.31-1.58 146.94-3.15 146.94-7.15L146.94-7.15 146.94-28.25Q146.94-34.25 152.64-34.25L152.64-34.25 168.84-34.25Q171.74-34.25 173.17-33.35 174.59-32.45 174.59-30.1L174.59-30.1Q174.59-27.9 173.37-27.03 172.14-26.15 169.34-26.15L169.34-26.15 158.44-26.15 158.44-20.3ZM212.84-24.6L212.84-24.6Q212.84-26.7 211.21-27.48 209.59-28.25 205.78-28.25L205.78-28.25 205.78-20.6Q208.14-20.6 209.61-20.95 211.09-21.3 211.96-22.18 212.84-23.05 212.84-24.6ZM213.49-11.25L213.49-11.25Q213.49-12.9 212.64-13.8 211.79-14.7 210.19-15.08 208.59-15.45 205.78-15.45L205.78-15.45 205.78-6.8Q209.69-6.8 211.59-7.78 213.49-8.75 213.49-11.25ZM219.64-17.8L219.64-17.8Q224.29-15.05 224.29-10.45L224.29-10.45Q224.29-8.45 223.51-6.63 222.74-4.8 221.21-3.3 219.69-1.8 217.19-0.93 214.69-0.05 211.54-0.05L211.54-0.05 199.94-0.05Q196.89-0.05 195.56-1.6 194.24-3.15 194.24-7.15L194.24-7.15 194.24-28.3Q194.24-30 194.84-31.3 195.44-32.6 196.76-33.4 198.09-34.2 199.94-34.2L199.94-34.2 211.39-34.2Q216.39-34.15 219.71-31.48 223.04-28.8 223.04-24.6L223.04-24.6Q223.04-23.25 222.81-22.23 222.59-21.2 222.14-20.4 221.69-19.6 221.09-19 220.49-18.4 219.64-17.8ZM245.13-26.1L245.13-26.1Q242.98-26.1 241.96-24.85 240.93-23.6 240.93-20.4L240.93-20.4 240.93-14.5 249.23-14.5 249.23-20.5Q249.23-22.6 248.73-23.88 248.23-25.15 247.36-25.63 246.48-26.1 245.13-26.1ZM249.23-4.95L249.23-7.6 240.93-7.6 240.93-4.95Q240.93-2.4 239.58-1.2 238.23 0 234.93 0L234.93 0Q233.53 0 232.63-0.4 231.73-0.8 231.06-1.75 230.38-2.7 230.06-4.53 229.73-6.35 229.56-8.93 229.38-11.5 229.38-15.45L229.38-15.45Q229.38-18.9 230.11-21.78 230.83-24.65 232.06-26.65 233.28-28.65 234.83-30.18 236.38-31.7 238.21-32.55 240.03-33.4 241.76-33.83 243.48-34.25 245.23-34.25L245.23-34.25Q247.33-34.25 249.38-33.68 251.43-33.1 253.53-31.7 255.63-30.3 257.21-28.23 258.78-26.15 259.78-22.85 260.78-19.55 260.78-15.45L260.78-15.45Q260.78-8.85 260.31-5.68 259.83-2.5 258.71-1.25 257.58 0 255.23 0L255.23 0Q251.93 0 250.58-1.2 249.23-2.4 249.23-4.95L249.23-4.95ZM279.93-34.6L279.93-34.6Q285.88-34.6 290.08-32.15 294.28-29.7 294.28-26.95L294.28-26.95Q294.28-26.2 293.96-25.68 293.63-25.15 293.16-24.93 292.68-24.7 292.13-24.7L292.13-24.7Q291.23-24.7 289.43-25.63 287.63-26.55 285.43-27.48 283.23-28.4 281.38-28.4L281.38-28.4Q278.43-28.4 278.43-26L278.43-26Q278.43-25.25 278.91-24.58 279.38-23.9 280.43-23.18 281.48-22.45 282.48-21.9 283.48-21.35 285.23-20.43 286.98-19.5 288.18-18.8L288.18-18.8Q292.03-16.6 293.58-14.6 295.13-12.6 295.13-10L295.13-10Q295.13 0.35 281.18 0.35L281.18 0.35Q278.43 0.35 275.86-0.2 273.28-0.75 271.36-1.65 269.43-2.55 267.96-3.65 266.48-4.75 265.73-5.9 264.98-7.05 264.98-8.05L264.98-8.05Q264.98-9.15 265.71-9.93 266.43-10.7 267.83-10.7L267.83-10.7Q268.88-10.7 272.88-9.38 276.88-8.05 279.33-8.05L279.33-8.05Q281.58-8.05 281.58-9.6L281.58-9.6Q281.58-10.05 281.41-10.43 281.23-10.8 280.81-11.18 280.38-11.55 279.86-11.88 279.33-12.2 278.41-12.7 277.48-13.2 276.56-13.7 275.63-14.2 274.13-15 272.63-15.8 271.23-16.6L271.23-16.6Q269.38-17.65 268.06-19.2 266.73-20.75 266.13-22.28 265.53-23.8 265.53-25.1L265.53-25.1Q265.53-29.3 269.28-31.95 273.03-34.6 279.93-34.6ZM312.48-20.3L321.08-20.3Q323.73-20.3 324.8-19.45 325.88-18.6 325.88-16.55L325.88-16.55Q325.88-14.85 324.6-14.13 323.33-13.4 320.63-13.4L320.63-13.4 312.53-13.4 312.53-8.1 323.38-8.05Q326.18-8.05 327.4-7.23 328.63-6.4 328.63-4.3L328.63-4.3Q328.63-1.9 327.2-0.95 325.78 0 322.88 0L322.88 0 306.68 0Q303.73 0 302.35-1.58 300.98-3.15 300.98-7.15L300.98-7.15 300.98-28.25Q300.98-34.25 306.68-34.25L306.68-34.25 322.88-34.25Q325.78-34.25 327.2-33.35 328.63-32.45 328.63-30.1L328.63-30.1Q328.63-27.9 327.4-27.03 326.18-26.15 323.38-26.15L323.38-26.15 312.48-26.15 312.48-20.3Z" opacity="1" transform="matrix(1,0,0,1,0,0)" fill="#ffffff" class="wordmark-text-0" data-fill-palette-color="quaternary" id="text-0"></path></svg></g></svg></g></svg></g></svg></g><g></g></svg></g><defs></defs></svg><rect width="395.52" height="84.6310683264177" fill="none" stroke="none" visibility="hidden"></rect></g></svg></g></svg>